# xmcd
#
# Track frame offsets:
#	150
#	21675
#	49110
#	64585
#	83802
#	102900
#	126507
#	140357
#	164337
#	183275
#	193080
#	211090
#	228372
#	247877
#	268872
#
# Disc length: 3876 seconds
# Revision: 2
# Processed by: cddbd v1.5.2PL0 Copyright (c) Steve Scherf et al.
# Submitted via: dBpowerAMP V12.0
#
DISCID=d50f220f
DTITLE=Various Artist - 美ら歌よ2〜沖縄ベスト・ソング・コレクション〜
DYEAR=2002
DGENRE=Other
TTITLE0=上々颱風 - 愛より青い海
TTITLE1=普天間かおり - 島唄
TTITLE2=川田房枝 - 浜千鳥
TTITLE3=嘉手苅林昌 - 海のチンボーラ〜赤山
TTITLE4=りんけんバンド - 海とぅ島
TTITLE5=TINGARA - 天河原ナークニー
TTITLE6=川田功子 - 安里屋ユンタ
TTITLE7=普天間かおり - 花(すべての人の心に花を)
TTITLE8=平安隆 - 満月の夕(ウチナーグチ・バージョン)
TTITLE9=川田房枝 - 谷茶前節
TTITLE10=日出克 - 風の結人
TTITLE11=宮永英一 - UMACHIDO
TTITLE12=嘉手苅林昌 - 多良間ションカネー
TTITLE13=普天間かおり - かなさんどー
TTITLE14=ディアマンテス - 沖縄ミ・アモール
EXTD=
EXTT0=
EXTT1=
EXTT2=
EXTT3=
EXTT4=
EXTT5=
EXTT6=
EXTT7=
EXTT8=
EXTT9=
EXTT10=
EXTT11=
EXTT12=
EXTT13=
EXTT14=
PLAYORDER=
